<mxfile host="app.diagrams.net" modified="2023-06-04T02:46:50.956Z" agent="Mozilla/5.0 (Windows NT 10.0; Win64; x64) AppleWebKit/537.36 (KHTML, like Gecko) Chrome/114.0.0.0 Safari/537.36" version="21.3.7" etag="y2frT5EXbIEZvARMqsUJ" type="github">
  <diagram name="第 1 页" id="qh566P_9HLcHRhbGZGeM">
    <mxGraphModel>
      <root>
        <mxCell id="0" />
        <mxCell id="1" parent="0" />
      </root>
    </mxGraphModel>
  </diagram>
</mxfile>
